<mxfile>
    <diagram id="vBiA7Wb-lgVxjecOvZs5" name="Page-1">
        <mxGraphModel dx="1138" dy="777" grid="1" gridSize="10" guides="1" tooltips="1" connect="1" arrows="1" fold="1" page="1" pageScale="1" pageWidth="850" pageHeight="1100" background="#ffffff" math="0" shadow="0">
            <root>
                <mxCell id="0"/>
                <mxCell id="1" parent="0"/>
                <mxCell id="17" value="&lt;font color=&quot;#000000&quot; style=&quot;font-size: 16px&quot;&gt;persistence&lt;/font&gt;" style="shape=cylinder3;whiteSpace=wrap;html=1;boundedLbl=1;backgroundOutline=1;size=15;rounded=0;glass=0;fillColor=#fa6800;fontColor=#ffffff;strokeColor=#C73500;sketch=1;" parent="1" vertex="1">
                    <mxGeometry x="510" y="710" width="100" height="80" as="geometry"/>
                </mxCell>
                <mxCell id="18" value="" style="group;sketch=1;" parent="1" vertex="1" connectable="0">
                    <mxGeometry x="360" y="380" width="120" height="130" as="geometry"/>
                </mxCell>
                <mxCell id="12" value="&lt;font color=&quot;#000000&quot; style=&quot;font-size: 16px&quot;&gt;import&lt;br&gt;gateway&lt;br&gt;&lt;/font&gt;" style="shape=hexagon;perimeter=hexagonPerimeter2;whiteSpace=wrap;html=1;fixedSize=1;strokeColor=#2D7600;fontColor=#ffffff;fillColor=#FFFFFF;sketch=1;" parent="18" vertex="1">
                    <mxGeometry x="10" y="20" width="100" height="80" as="geometry"/>
                </mxCell>
                <mxCell id="13" value="&lt;font style=&quot;font-size: 12px&quot;&gt;REST&lt;/font&gt;" style="rounded=0;whiteSpace=wrap;html=1;fillColor=#e3c800;strokeColor=#B09500;fontStyle=0;glass=0;fontColor=#000000;sketch=1;" parent="18" vertex="1">
                    <mxGeometry x="70" width="40" height="40" as="geometry"/>
                </mxCell>
                <mxCell id="14" value="&lt;font style=&quot;font-size: 12px&quot;&gt;Kafka&lt;/font&gt;" style="rounded=0;whiteSpace=wrap;html=1;fillColor=#e3c800;strokeColor=#B09500;fontStyle=0;glass=0;fontColor=#000000;sketch=1;" parent="18" vertex="1">
                    <mxGeometry x="10" width="40" height="40" as="geometry"/>
                </mxCell>
                <mxCell id="167" value="" style="shape=cylinder3;whiteSpace=wrap;html=1;boundedLbl=1;backgroundOutline=1;size=15;rounded=0;glass=0;fillColor=#fa6800;fontColor=#ffffff;strokeColor=#C73500;sketch=1;" vertex="1" parent="18">
                    <mxGeometry x="80" y="80" width="40" height="50" as="geometry"/>
                </mxCell>
                <mxCell id="20" value="content-topic" style="shape=step;perimeter=stepPerimeter;whiteSpace=wrap;html=1;fixedSize=1;rounded=0;glass=0;fillColor=#fa6800;strokeColor=#C73500;fontSize=14;fontColor=#000000;sketch=1;" parent="1" vertex="1">
                    <mxGeometry x="80" y="500" width="200" height="40" as="geometry"/>
                </mxCell>
                <mxCell id="24" style="edgeStyle=orthogonalEdgeStyle;curved=1;rounded=0;orthogonalLoop=1;jettySize=auto;html=1;entryX=0.75;entryY=0;entryDx=0;entryDy=0;strokeColor=#000000;fontSize=16;fontColor=#000000;sketch=1;exitX=0;exitY=0.5;exitDx=0;exitDy=0;" parent="1" source="12" target="20" edge="1">
                    <mxGeometry relative="1" as="geometry"/>
                </mxCell>
                <mxCell id="26" value="import-topic" style="shape=step;perimeter=stepPerimeter;whiteSpace=wrap;html=1;fixedSize=1;rounded=0;glass=0;fillColor=#fa6800;strokeColor=#C73500;fontSize=14;fontColor=#000000;sketch=1;" parent="1" vertex="1">
                    <mxGeometry x="80" y="300" width="200" height="40" as="geometry"/>
                </mxCell>
                <mxCell id="44" style="edgeStyle=orthogonalEdgeStyle;curved=1;rounded=0;orthogonalLoop=1;jettySize=auto;html=1;entryX=0.5;entryY=1;entryDx=0;entryDy=0;entryPerimeter=0;strokeColor=#000000;fontSize=14;fontColor=#000000;dashed=1;sketch=1;exitX=1;exitY=0.5;exitDx=0;exitDy=0;" parent="1" source="42" target="17" edge="1">
                    <mxGeometry relative="1" as="geometry"/>
                </mxCell>
                <mxCell id="68" style="edgeStyle=orthogonalEdgeStyle;curved=1;rounded=0;orthogonalLoop=1;jettySize=auto;html=1;entryX=0.5;entryY=0;entryDx=0;entryDy=0;entryPerimeter=0;strokeColor=#000000;fontColor=#000000;sketch=1;exitX=1;exitY=0.5;exitDx=0;exitDy=0;" parent="1" source="86" target="17" edge="1">
                    <mxGeometry relative="1" as="geometry">
                        <mxPoint x="680" y="660" as="sourcePoint"/>
                    </mxGeometry>
                </mxCell>
                <mxCell id="85" value="" style="group;sketch=1;" parent="1" vertex="1" connectable="0">
                    <mxGeometry x="370" y="570" width="100" height="100" as="geometry"/>
                </mxCell>
                <mxCell id="86" value="&lt;font color=&quot;#000000&quot; style=&quot;font-size: 16px&quot;&gt;Sink&lt;br&gt;&lt;/font&gt;" style="shape=hexagon;perimeter=hexagonPerimeter2;whiteSpace=wrap;html=1;fixedSize=1;strokeColor=#2D7600;fontColor=#ffffff;fillColor=#FFFFFF;sketch=1;" parent="85" vertex="1">
                    <mxGeometry y="20" width="100" height="80" as="geometry"/>
                </mxCell>
                <mxCell id="87" value="&lt;font style=&quot;font-size: 12px&quot;&gt;Kafka&lt;/font&gt;" style="rounded=0;whiteSpace=wrap;html=1;fillColor=#e3c800;strokeColor=#B09500;fontStyle=0;glass=0;fontColor=#000000;sketch=1;" parent="85" vertex="1">
                    <mxGeometry width="40" height="40" as="geometry"/>
                </mxCell>
                <mxCell id="95" style="edgeStyle=orthogonalEdgeStyle;curved=1;rounded=0;sketch=1;orthogonalLoop=1;jettySize=auto;html=1;entryX=0.75;entryY=1;entryDx=0;entryDy=0;dashed=1;startArrow=none;startFill=0;strokeColor=#000000;fontColor=#000000;exitX=0;exitY=0.5;exitDx=0;exitDy=0;" parent="1" source="87" target="20" edge="1">
                    <mxGeometry relative="1" as="geometry">
                        <Array as="points">
                            <mxPoint x="230" y="590"/>
                        </Array>
                    </mxGeometry>
                </mxCell>
                <mxCell id="108" value="notification-topic" style="shape=step;perimeter=stepPerimeter;whiteSpace=wrap;html=1;fixedSize=1;rounded=0;glass=0;fillColor=#fa6800;strokeColor=#C73500;fontSize=14;fontColor=#000000;sketch=1;" parent="1" vertex="1">
                    <mxGeometry x="560" y="500" width="200" height="40" as="geometry"/>
                </mxCell>
                <mxCell id="165" style="edgeStyle=orthogonalEdgeStyle;rounded=0;orthogonalLoop=1;jettySize=auto;html=1;entryX=0;entryY=0.5;entryDx=0;entryDy=0;strokeColor=#000000;curved=1;dashed=1;sketch=1;startArrow=classic;startFill=1;endArrow=none;endFill=0;" parent="1" source="115" target="119" edge="1">
                    <mxGeometry relative="1" as="geometry">
                        <Array as="points">
                            <mxPoint x="40" y="720"/>
                            <mxPoint x="40" y="70"/>
                        </Array>
                    </mxGeometry>
                </mxCell>
                <mxCell id="115" value="commands-topic" style="shape=step;perimeter=stepPerimeter;whiteSpace=wrap;html=1;fixedSize=1;rounded=0;glass=0;fillColor=#fa6800;strokeColor=#C73500;fontSize=14;fontColor=#000000;sketch=1;" parent="1" vertex="1">
                    <mxGeometry x="80" y="700" width="200" height="40" as="geometry"/>
                </mxCell>
                <mxCell id="116" style="edgeStyle=orthogonalEdgeStyle;curved=1;rounded=0;sketch=1;orthogonalLoop=1;jettySize=auto;html=1;entryX=0.844;entryY=1;entryDx=0;entryDy=0;entryPerimeter=0;startArrow=none;startFill=0;endArrow=classic;endFill=1;strokeColor=#000000;" parent="1" source="42" target="115" edge="1">
                    <mxGeometry relative="1" as="geometry"/>
                </mxCell>
                <mxCell id="119" value="&lt;font color=&quot;#000000&quot; style=&quot;font-size: 16px&quot;&gt;External&amp;nbsp;&lt;br&gt;Systems&lt;/font&gt;" style="rounded=1;whiteSpace=wrap;html=1;strokeColor=#6F0000;fillColor=#a20025;fontColor=#ffffff;sketch=1;opacity=50;spacing=13;labelBackgroundColor=#ffffff;labelBorderColor=none;spacingTop=0;" parent="1" vertex="1">
                    <mxGeometry x="80" y="20" width="680" height="100" as="geometry"/>
                </mxCell>
                <mxCell id="157" style="edgeStyle=orthogonalEdgeStyle;curved=1;rounded=0;sketch=1;orthogonalLoop=1;jettySize=auto;html=1;entryX=0.75;entryY=0;entryDx=0;entryDy=0;strokeColor=#000000;exitX=0.5;exitY=1;exitDx=0;exitDy=0;" parent="1" source="166" target="26" edge="1">
                    <mxGeometry relative="1" as="geometry">
                        <mxPoint x="413.8800000000001" y="260.96000000000004" as="sourcePoint"/>
                    </mxGeometry>
                </mxCell>
                <mxCell id="158" style="edgeStyle=orthogonalEdgeStyle;curved=1;rounded=0;sketch=1;orthogonalLoop=1;jettySize=auto;html=1;entryX=0.25;entryY=0;entryDx=0;entryDy=0;strokeColor=#B3B3B3;exitX=0.5;exitY=1;exitDx=0;exitDy=0;" parent="1" source="166" target="108" edge="1">
                    <mxGeometry relative="1" as="geometry">
                        <Array as="points">
                            <mxPoint x="420" y="340"/>
                            <mxPoint x="610" y="340"/>
                        </Array>
                        <mxPoint x="420" y="260" as="sourcePoint"/>
                    </mxGeometry>
                </mxCell>
                <mxCell id="155" style="edgeStyle=orthogonalEdgeStyle;rounded=0;sketch=1;orthogonalLoop=1;jettySize=auto;html=1;exitX=0;exitY=0.5;exitDx=0;exitDy=0;entryX=0.75;entryY=1;entryDx=0;entryDy=0;dashed=1;strokeColor=#000000;curved=1;" parent="1" source="14" target="26" edge="1">
                    <mxGeometry relative="1" as="geometry"/>
                </mxCell>
                <mxCell id="159" style="edgeStyle=orthogonalEdgeStyle;curved=1;rounded=0;sketch=1;orthogonalLoop=1;jettySize=auto;html=1;strokeColor=#B3B3B3;" parent="1" source="12" edge="1">
                    <mxGeometry relative="1" as="geometry">
                        <mxPoint x="690" y="500" as="targetPoint"/>
                    </mxGeometry>
                </mxCell>
                <mxCell id="160" style="edgeStyle=orthogonalEdgeStyle;curved=1;rounded=0;sketch=1;orthogonalLoop=1;jettySize=auto;html=1;entryX=0.25;entryY=1;entryDx=0;entryDy=0;strokeColor=#B3B3B3;" parent="1" source="86" target="108" edge="1">
                    <mxGeometry relative="1" as="geometry"/>
                </mxCell>
                <mxCell id="161" value="&lt;font color=&quot;#000000&quot;&gt;&lt;span style=&quot;font-size: 16px&quot;&gt;Clients&lt;/span&gt;&lt;/font&gt;" style="rounded=1;whiteSpace=wrap;html=1;strokeColor=#6F0000;fillColor=#a20025;fontColor=#ffffff;sketch=1;opacity=50;spacing=13;labelBackgroundColor=#ffffff;labelBorderColor=none;spacingTop=0;" parent="1" vertex="1">
                    <mxGeometry x="80" y="980" width="680" height="100" as="geometry"/>
                </mxCell>
                <mxCell id="162" value="" style="group" parent="1" vertex="1" connectable="0">
                    <mxGeometry x="370" y="820" width="120" height="120" as="geometry"/>
                </mxCell>
                <mxCell id="141" value="" style="shape=hexagon;perimeter=hexagonPerimeter2;whiteSpace=wrap;html=1;fixedSize=1;strokeColor=#2D7600;fontColor=#ffffff;fillColor=#FFFFFF;sketch=1;" parent="162" vertex="1">
                    <mxGeometry width="100" height="80" as="geometry"/>
                </mxCell>
                <mxCell id="142" value="" style="shape=hexagon;perimeter=hexagonPerimeter2;whiteSpace=wrap;html=1;fixedSize=1;strokeColor=#2D7600;fontColor=#ffffff;fillColor=#FFFFFF;sketch=1;" parent="162" vertex="1">
                    <mxGeometry x="10" y="10" width="100" height="80" as="geometry"/>
                </mxCell>
                <mxCell id="42" value="&lt;font color=&quot;#000000&quot; style=&quot;font-size: 16px&quot;&gt;REST&lt;br&gt;&lt;/font&gt;" style="shape=hexagon;perimeter=hexagonPerimeter2;whiteSpace=wrap;html=1;fixedSize=1;strokeColor=#2D7600;fontColor=#ffffff;fillColor=#FFFFFF;sketch=1;" parent="162" vertex="1">
                    <mxGeometry x="20" y="20" width="100" height="80" as="geometry"/>
                </mxCell>
                <mxCell id="43" value="&lt;font style=&quot;font-size: 12px&quot;&gt;REST&lt;/font&gt;" style="rounded=0;whiteSpace=wrap;html=1;fillColor=#e3c800;strokeColor=#B09500;fontStyle=0;glass=0;fontColor=#000000;sketch=1;" parent="162" vertex="1">
                    <mxGeometry x="20" y="80" width="40" height="40" as="geometry"/>
                </mxCell>
                <mxCell id="54" value="&lt;font style=&quot;font-size: 12px&quot;&gt;json&lt;br&gt;RPC&lt;br&gt;&lt;/font&gt;" style="rounded=0;whiteSpace=wrap;html=1;fillColor=#e3c800;strokeColor=#B09500;fontStyle=0;glass=0;fontColor=#000000;sketch=1;" parent="162" vertex="1">
                    <mxGeometry x="80" y="80" width="40" height="40" as="geometry"/>
                </mxCell>
                <mxCell id="166" value="&lt;font color=&quot;#000000&quot; style=&quot;font-size: 16px&quot;&gt;Datasource&lt;br&gt;&lt;/font&gt;" style="shape=hexagon;perimeter=hexagonPerimeter2;whiteSpace=wrap;html=1;fixedSize=1;strokeColor=#2D7600;fontColor=#ffffff;fillColor=#FFFFFF;sketch=1;flipH=1;" vertex="1" parent="1">
                    <mxGeometry x="370" y="140" width="100" height="80" as="geometry"/>
                </mxCell>
            </root>
        </mxGraphModel>
    </diagram>
</mxfile>